<?xml version="1.0" encoding="UTF-8"?>
<svg width="127px" height="43px" viewBox="0 0 127 43" version="1.1" xmlns="http://www.w3.org/2000/svg" xmlns:xlink="http://www.w3.org/1999/xlink">
    <title>download-googleplay</title>
    <defs>
        <linearGradient x1="61.0301652%" y1="4.94958549%" x2="26.4625815%" y2="71.9258683%" id="linearGradient-1">
            <stop stop-color="#00A0FF" offset="0%"></stop>
            <stop stop-color="#00A1FF" offset="0.6569999%"></stop>
            <stop stop-color="#00BEFF" offset="26.01%"></stop>
            <stop stop-color="#00D2FF" offset="51.22%"></stop>
            <stop stop-color="#00DFFF" offset="76.04%"></stop>
            <stop stop-color="#00E3FF" offset="100%"></stop>
        </linearGradient>
        <linearGradient x1="107.630451%" y1="50.0004315%" x2="-130.551706%" y2="50.0004315%" id="linearGradient-2">
            <stop stop-color="#FFE000" offset="0%"></stop>
            <stop stop-color="#FFBD00" offset="40.87%"></stop>
            <stop stop-color="#FFA500" offset="77.54%"></stop>
            <stop stop-color="#FF9C00" offset="100%"></stop>
        </linearGradient>
        <linearGradient x1="86.243474%" y1="30.90425%" x2="-50.1292379%" y2="136.019454%" id="linearGradient-3">
            <stop stop-color="#FF3A44" offset="0%"></stop>
            <stop stop-color="#C31162" offset="100%"></stop>
        </linearGradient>
        <linearGradient x1="-18.8105628%" y1="-11.8250802%" x2="42.0848536%" y2="35.086648%" id="linearGradient-4">
            <stop stop-color="#32A071" offset="0%"></stop>
            <stop stop-color="#2DA771" offset="6.85%"></stop>
            <stop stop-color="#15CF74" offset="47.62%"></stop>
            <stop stop-color="#06E775" offset="80.09%"></stop>
            <stop stop-color="#00F076" offset="100%"></stop>
        </linearGradient>
    </defs>
    <g id="Styles-&amp;-Assets" stroke="none" stroke-width="1" fill="none" fill-rule="evenodd">
        <g id="Artboard-Copy-5" transform="translate(-577.000000, -252.000000)">
            <g id="download-googleplay" transform="translate(577.000000, 252.000000)">
                <g id="Group-Copy" fill-rule="nonzero">
                    <path d="M116.566641,-0.000137592 L10.0915053,-0.000137592 C9.70339003,-0.000137592 9.31993171,-0.000137592 8.93284308,0.0021168 C8.60881392,0.0042336 8.28736726,0.010382904 7.9602264,0.01555848 C7.24952528,0.0239217489 6.54049549,0.0864461535 5.83929864,0.202588344 C5.13908669,0.321258933 4.46080939,0.54498682 3.82740725,0.866205144 C3.19477978,1.19014086 2.61672997,1.61106211 2.11422809,2.11369889 C1.60908816,2.6149222 1.18801503,3.19426853 0.86720004,3.82946054 C0.545499616,4.46338829 0.322431503,5.14270029 0.20570004,5.84393443 C0.0878587801,6.5442829 0.0244473261,7.25270774 0.01603476,7.96285123 C0.006212808,8.28735667 0.005175576,8.61294168 0,8.93748946 L0,33.4016222 C0.005175576,33.7302554 0.006212808,34.0486222 0.01603476,34.3773612 C0.0244499058,35.0874695 0.0878613609,35.7958589 0.20570004,36.4961722 C0.322109173,37.1978162 0.545190474,37.8775182 0.86720004,38.5116833 C1.18786936,39.1448212 1.60900171,39.7218221 2.11422809,40.2202584 C2.61482464,40.7251301 3.19324809,41.1463377 3.82740725,41.4677945 C4.46080458,41.7898725 5.13900875,42.0149321 5.83929864,42.1354332 C6.54061469,42.250645 7.24957156,42.3131949 7.9602264,42.3225583 C8.28736726,42.3297554 8.60881392,42.3338832 8.93284308,42.3338832 C9.31992113,42.336 9.7034112,42.336 10.0915053,42.336 L116.566641,42.336 C116.94703,42.336 117.333557,42.336 117.713946,42.3338832 C118.036441,42.3338832 118.367191,42.3297554 118.689685,42.3225583 C119.398996,42.3136928 120.106619,42.251139 120.806485,42.1354332 C121.509034,42.0140838 122.18967,41.7890838 122.826124,41.4677945 C123.459711,41.1461516 124.037601,40.7249555 124.537768,40.2202584 C125.041691,39.71987 125.463723,39.1432912 125.788374,38.5116833 C126.107967,37.8770569 126.328925,37.1974093 126.443629,36.4961722 C126.561657,35.7957629 126.627318,35.0875309 126.640068,34.3773612 C126.644196,34.0486222 126.644196,33.7302554 126.644196,33.4016222 C126.652452,33.0171055 126.652452,32.6347056 126.652452,32.2439443 L126.652452,10.09304 C126.652452,9.70544333 126.652452,9.32094778 126.644196,8.93748946 C126.644196,8.61294168 126.644196,8.28735667 126.640068,7.9628089 C126.627321,7.25260392 126.561659,6.54433663 126.443629,5.8438921 C126.328605,5.14306364 126.10766,4.46380547 125.788374,3.82941821 C125.135049,2.55624353 124.099065,1.51988928 122.826124,0.866109888 C122.189668,0.545676515 121.508959,0.32200805 120.806485,0.202493088 C120.10674,0.0858391857 119.399044,0.0232930184 118.689685,0.015410304 C118.367191,0.010245312 118.036441,0.004043088 117.713946,0.001979208 C117.333557,-0.000137592 116.94703,-0.000137592 116.566641,-0.000137592 L116.566641,-0.000137592 Z" id="Path" fill="#A6A6A6"></path>
                    <path d="M8.93800807,41.4099 C8.61553476,41.4099 8.30085127,41.4057722 7.98090754,41.3985751 C7.31811816,41.3899394 6.6568779,41.3322399 6.00260976,41.2259501 C5.39253774,41.1208808 4.80154193,40.9254327 4.24911614,40.6460527 C3.7017558,40.3689876 3.20251917,40.005692 2.77053134,39.5700833 C2.33229059,39.1396058 1.96743514,38.6403254 1.69042356,38.0920277 C1.41035955,37.5401664 1.21653859,36.9486377 1.11571236,36.3380472 C1.00682878,35.6819608 0.947918253,35.0185539 0.93948876,34.3535472 C0.932778504,34.1303306 0.923993784,33.3871222 0.923993784,33.3871222 L0.923993784,8.93748946 C0.923993784,8.93748946 0.93335004,8.20570111 0.93954168,7.99070832 C0.947612855,7.326755 1.00618082,6.66437764 1.11473863,6.00930943 C1.21575098,5.39704628 1.40972199,4.8038118 1.6899367,4.25014279 C1.96593019,3.70222377 2.32876003,3.20257053 2.76436087,2.77055251 C3.19947211,2.33442971 3.7003057,1.9692634 4.24859753,1.68837026 C4.79975368,1.40988787 5.38963258,1.21581853 5.99847142,1.11266417 C6.65488827,1.00530657 7.31842411,0.947263856 7.9835112,0.939023064 L8.93852669,0.9261 L117.70876,0.9261 L118.675185,0.93954168 C119.334222,0.947372991 119.991731,1.00489789 120.642116,1.11162694 C121.257118,1.21607521 121.853144,1.41149868 122.410596,1.69147138 C123.509023,2.25755243 124.402792,3.15314606 124.966632,4.25272529 C125.242374,4.80257209 125.433353,5.39096755 125.533088,5.99794222 C125.642938,6.65838528 125.704418,7.32596786 125.717038,7.99536528 C125.720107,8.29510416 125.720107,8.61706944 125.720107,8.93748946 C125.728468,9.33438946 125.728468,9.71216417 125.728468,10.09304 L125.728468,32.2439443 C125.728468,32.628461 125.728468,33.0036638 125.720107,33.381936 C125.720107,33.7261277 125.720107,34.041425 125.715979,34.3659305 C125.703633,35.0233828 125.643178,35.6790495 125.535099,36.3276749 C125.436339,36.94267 125.243573,37.5388159 124.963563,38.0952029 C124.684593,38.6375494 124.321833,39.1325049 123.888652,39.5618278 C123.456275,39.9997774 122.956158,40.3651986 122.407527,40.6440418 C121.851619,40.9255695 121.25647,41.1217403 120.642116,41.2259501 C119.987897,41.3328072 119.326593,41.3905103 118.663754,41.3985751 C118.353749,41.4057722 118.029138,41.4099 117.713946,41.4099 L116.566641,41.4120168 L8.93800807,41.4099 Z" id="Path" fill="#000000"></path>
                </g>
                <g id="Group-10" transform="translate(11.900000, 7.700000)">
                    <path d="M55.7198146,6.73149669 C54.777457,6.73149669 53.9830728,6.40180132 53.3548344,5.7527947 C52.7317881,5.12196026 52.3839205,4.25229139 52.3994967,3.36445033 C52.3994967,2.41690066 52.721404,1.61472848 53.3548344,0.978701987 C53.9804768,0.329695364 54.7748609,0 55.7172185,0 C56.6491921,0 57.4435762,0.329695364 58.0821987,0.978701987 C58.7156291,1.63549669 59.0375364,2.43766887 59.0375364,3.36445033 C59.0271523,4.31459603 58.705245,5.11676821 58.0821987,5.75019868 C57.4565563,6.40439735 56.6621722,6.73149669 55.7198146,6.73149669 Z M27.6801325,6.73149669 C26.758543,6.73149669 25.9589669,6.40699338 25.3047682,5.76577483 C24.6557616,5.12715232 24.3260662,4.31978808 24.3260662,3.36704636 C24.3260662,2.41430464 24.6557616,1.6069404 25.3047682,0.968317881 C25.9459868,0.327099338 26.7455629,0.00259602649 27.6801325,0.00259602649 C28.1370331,0.00259602649 28.5809536,0.0934569536 29.006702,0.277774834 C29.4246623,0.456900662 29.7647417,0.700927152 30.0165563,0.999470199 L30.0788609,1.07475497 L29.3753377,1.76529801 L29.302649,1.67962914 C28.905457,1.20715232 28.3732715,0.97610596 27.6697483,0.97610596 C27.0415099,0.97610596 26.4937483,1.19936424 26.0420397,1.64068874 C25.5877351,2.08460927 25.3566887,2.66611921 25.3566887,3.36964238 C25.3566887,4.07316556 25.5877351,4.6546755 26.0420397,5.09859603 C26.4937483,5.53992053 27.0415099,5.76317881 27.6697483,5.76317881 C28.3395232,5.76317881 28.9028609,5.53992053 29.3415894,5.09859603 C29.6011921,4.83899338 29.7621457,4.47554967 29.8192583,4.01605298 L27.5633113,4.01605298 L27.5633113,3.04513907 L30.7875762,3.04513907 L30.8005563,3.13340397 C30.8239205,3.29695364 30.8472848,3.46569536 30.8472848,3.62145695 C30.8472848,4.51708609 30.577298,5.24137748 30.0425166,5.77615894 C29.4350464,6.4095894 28.6406623,6.73149669 27.6801325,6.73149669 Z M64.9616689,6.59390728 L63.9673907,6.59390728 L60.9222517,1.72116556 L60.9482119,2.59862252 L60.9482119,6.59131126 L59.9539338,6.59131126 L59.9539338,0.14018543 L61.0883974,0.14018543 L61.1195497,0.189509934 L63.9829669,4.77928477 L63.9570066,3.90442384 L63.9570066,0.14018543 L64.9616689,0.14018543 L64.9616689,6.59390728 L64.9616689,6.59390728 Z M48.2484503,6.59390728 L47.2411921,6.59390728 L47.2411921,1.11109934 L45.4940662,1.11109934 L45.4940662,0.14018543 L49.9929801,0.14018543 L49.9929801,1.11109934 L48.2458543,1.11109934 L48.2458543,6.59390728 L48.2484503,6.59390728 Z M44.6737219,6.59390728 L43.6690596,6.59390728 L43.6690596,0.14018543 L44.6737219,0.14018543 L44.6737219,6.59390728 Z M39.0273642,6.59390728 L38.022702,6.59390728 L38.022702,1.11109934 L36.2755762,1.11109934 L36.2755762,0.14018543 L40.7744901,0.14018543 L40.7744901,1.11109934 L39.0273642,1.11109934 L39.0273642,6.59390728 Z M35.6395497,6.58352318 L31.7870464,6.58352318 L31.7870464,0.14018543 L35.6395497,0.14018543 L35.6395497,1.11109934 L32.7943046,1.11109934 L32.7943046,2.8815894 L35.3617748,2.8815894 L35.3617748,3.84211921 L32.7943046,3.84211921 L32.7943046,5.61260927 L35.6395497,5.61260927 L35.6395497,6.58352318 Z M54.092106,5.08561589 C54.5412185,5.53472848 55.0863841,5.76058278 55.7198146,5.76058278 C56.3714172,5.76058278 56.9036026,5.53992053 57.3475232,5.08561589 C57.7888477,4.64429139 58.012106,4.06537748 58.012106,3.36704636 C58.012106,2.66871523 57.7888477,2.0872053 57.3501192,1.64847682 C56.9010066,1.19936424 56.353245,0.973509934 55.7224106,0.973509934 C55.0708079,0.973509934 54.5386225,1.19417219 54.097298,1.64847682 C53.6559735,2.08980132 53.4327152,2.66871523 53.4327152,3.36704636 C53.4327152,4.06537748 53.6533775,4.64688742 54.092106,5.08561589 L54.092106,5.08561589 Z" id="Shape" fill="#FFFFFF" fill-rule="nonzero"></path>
                    <path d="M49.5112968,16.3209532 C47.2727511,16.3209532 45.4582262,18.0108522 45.4582262,20.3418286 C45.4582262,22.6515929 47.2845952,24.362704 49.5112968,24.362704 C51.7498426,24.362704 53.5643675,22.6610205 53.5643675,20.3418286 C53.5643675,18.0108522 51.7498426,16.3209532 49.5112968,16.3209532 Z M49.5112968,22.769438 C48.286611,22.769438 47.2324809,21.7606838 47.2324809,20.332401 C47.2324809,18.8829061 48.2889798,17.895364 49.5112968,17.895364 C50.7359827,17.895364 51.7901167,18.8829061 51.7901167,20.332401 C51.7924815,21.7701114 50.7359827,22.769438 49.5112968,22.769438 Z M40.6684489,16.3209532 C38.4299032,16.3209532 36.6153783,18.0108522 36.6153783,20.3418286 C36.6153783,22.6515929 38.4417473,24.362704 40.6684489,24.362704 C42.9069947,24.362704 44.7215196,22.6610205 44.7215196,20.3418286 C44.7215196,18.0108522 42.9046258,16.3209532 40.6684489,16.3209532 Z M40.6684489,22.769438 C39.4437631,22.769438 38.3896331,21.7606838 38.3896331,20.332401 C38.3896331,18.8829061 39.4461319,17.895364 40.6684489,17.895364 C41.8931348,17.895364 42.9472648,18.8829061 42.9472648,20.332401 C42.9472648,21.7701114 41.8931348,22.769438 40.6684489,22.769438 Z M30.1460995,17.5488993 L30.1460995,19.2505828 L34.2512845,19.2505828 C34.1257364,20.2051283 33.808313,20.9098421 33.3227025,21.3930071 C32.7210193,21.9916603 31.7924374,22.6421653 30.1555748,22.6421653 C27.6327693,22.6421653 25.6595327,20.6152293 25.6595327,18.1051283 C25.6595327,15.5950273 27.6327693,13.5680912 30.1555748,13.5680912 C31.5176529,13.5680912 32.5101933,14.1031081 33.2468999,14.7866098 L34.4597416,13.5798758 C33.4364064,12.6041182 32.0743283,11.8569801 30.1650502,11.8569801 C26.7041874,11.8569801 23.8,14.6616939 23.8,18.0957007 C23.8,21.539135 26.7018186,24.3344212 30.1650502,24.3344212 C32.0340582,24.3344212 33.4364064,23.7263404 34.5450196,22.5808859 C35.6749522,21.4566434 36.0326457,19.8704481 36.0326457,18.5906502 C36.0326457,18.1923337 36.0018509,17.8340845 35.9378925,17.5300441 L30.1437307,17.5300441 C30.1460995,17.5276872 30.1460995,17.5488993 30.1460995,17.5488993 Z M73.1853986,18.8734784 C72.8466557,17.9707848 71.8233205,16.3115256 69.7245358,16.3115256 C67.6447018,16.3115256 65.9154548,17.9401451 65.9154548,20.332401 C65.9154548,22.5903135 67.6257511,24.3532764 69.9258865,24.3532764 C71.773575,24.3532764 72.8490245,23.229034 73.291996,22.5691013 L71.9204426,21.6546232 C71.4656269,22.3263404 70.8331489,22.7670811 69.9353618,22.7670811 C69.0280993,22.7670811 68.3932525,22.3569801 67.9716005,21.5485626 L73.3749051,19.3212899 C73.3749051,19.3236468 73.1853986,18.8734784 73.1853986,18.8734784 Z M67.6754966,20.2169128 C67.6328576,18.6637141 68.8883383,17.8741518 69.7861254,17.8741518 C70.494406,17.8741518 71.0842451,18.2206165 71.2855957,18.7249936 L67.6754966,20.2169128 Z M63.2860518,24.1128724 L65.0603066,24.1128724 L65.0603066,12.3000778 L63.2860518,12.3000778 L63.2860518,24.1128724 Z M60.3723891,17.2142192 L60.3084307,17.2142192 C59.9080982,16.7404818 59.1477033,16.3115256 58.1764824,16.3115256 C56.1606068,16.3115256 54.3034429,18.0768455 54.3034429,20.3441855 C54.3034429,22.602098 56.1511314,24.3462057 58.1764824,24.3462057 C59.1358591,24.3462057 59.9080982,23.9148926 60.3084307,23.4317276 L60.3723891,23.4317276 L60.3723891,24.0091687 C60.3723891,25.5435121 59.5480358,26.3707848 58.2191213,26.3707848 C57.1318277,26.3707848 56.4567107,25.5930071 56.1819263,24.942502 L54.639817,25.5835795 C55.0827885,26.6441855 56.2648354,27.9569801 58.2167525,27.9569801 C60.2965865,27.9569801 62.0589971,26.7384616 62.0589971,23.7664077 L62.0589971,16.5519296 L60.3818645,16.5519296 L60.3818645,17.2142192 C60.3842333,17.2142192 60.3723891,17.2142192 60.3723891,17.2142192 Z M58.3351941,22.769438 C57.1105082,22.769438 56.087173,21.7512562 56.087173,20.3441855 C56.087173,18.9253303 57.1105082,17.8977209 58.3351941,17.8977209 C59.5480358,17.8977209 60.4884619,18.9371148 60.4884619,20.3441855 C60.500306,21.7512562 59.5504046,22.769438 58.3351941,22.769438 Z M81.4928906,12.3000778 L77.2503134,12.3000778 L77.2503134,24.1128724 L79.0245682,24.1128724 L79.0245682,19.6394717 L81.4952594,19.6394717 C83.4590207,19.6394717 85.3896183,18.2229734 85.3896183,15.9744885 C85.3896183,13.7260037 83.4661272,12.3000778 81.4928906,12.3000778 Z M81.5450049,17.9896401 L79.0221993,17.9896401 L79.0221993,13.935768 L81.5450049,13.935768 C82.8739193,13.935768 83.6248389,15.0270138 83.6248389,15.962704 C83.6248389,16.8889667 82.864444,17.9896401 81.5450049,17.9896401 Z M92.5008504,16.2997411 C91.2122061,16.2997411 89.8832916,16.8677545 89.3337227,18.1051283 L90.9066268,18.7556333 C91.2453697,18.1051283 91.8660036,17.8835795 92.5221699,17.8835795 C93.4412765,17.8835795 94.3698585,18.4303808 94.3911779,19.4061384 L94.3911779,19.5310542 C94.0737545,19.3519296 93.3773181,19.078529 92.5434894,19.078529 C90.8450372,19.078529 89.1228967,20.0024347 89.1228967,21.7347579 C89.1228967,23.3209532 90.5157696,24.339135 92.0673543,24.339135 C93.2588765,24.339135 93.9150428,23.8041182 94.3248507,23.1842529 L94.3888091,23.1842529 L94.3888091,24.098731 L96.0991054,24.098731 L96.0991054,19.5734784 C96.0991054,17.4664077 94.5262013,16.2997411 92.5008504,16.2997411 Z M92.2781803,22.769438 C91.6978166,22.769438 90.8853074,22.4866098 90.8853074,21.7606838 C90.8853074,20.8462057 91.8991672,20.4997411 92.7637907,20.4997411 C93.5455051,20.4997411 93.9150428,20.6670811 94.3793338,20.8980576 C94.2514169,21.9586636 93.3512609,22.7600104 92.2781803,22.769438 Z M102.338608,16.5519296 L100.301412,21.6758354 L100.237454,21.6758354 L98.1268252,16.5519296 L96.217547,16.5519296 L99.3846747,23.7145559 L97.5796251,27.695364 L99.4273137,27.695364 L104.3,16.5519296 C104.3,16.5519296 102.338608,16.5519296 102.338608,16.5519296 Z M86.3679457,24.1128724 L88.1422005,24.1128724 L88.1422005,12.3000778 L86.3679457,12.3000778 L86.3679457,24.1128724 Z" id="Shape" fill="#FFFFFF"></path>
                    <g id="Group-4" transform="translate(0.000000, 3.456980)">
                        <path d="M0.34205245,0.295215386 C0.125232318,0.52885777 -2.68585154e-15,0.885863333 -2.68585154e-15,1.3531481 L-2.68585154e-15,17.9268043 C-2.68585154e-15,18.394089 0.125232318,18.7510946 0.349529007,18.9753913 L0.407472318,19.025858 L9.69335523,9.73997512 L9.69335523,9.53250068 L0.399995762,0.244748631 C0.399995762,0.244748631 0.34205245,0.295215386 0.34205245,0.295215386 Z" id="Path" fill="url(#linearGradient-1)"></path>
                        <path d="M12.7830421,12.8446151 L9.68587868,9.74745168 L9.68587868,9.53063154 L12.7830421,6.4334681 L12.8503311,6.47458916 L16.5138437,8.55681009 C17.5624307,9.14745803 17.5624307,10.1231486 16.5138437,10.7212731 L12.8503311,12.8034941 C12.8503311,12.8034941 12.7830421,12.8446151 12.7830421,12.8446151 Z" id="Path" fill="url(#linearGradient-2)"></path>
                        <path d="M12.8503311,12.8034941 L9.68587868,9.63904161 L0.34205245,18.9828678 C0.684104901,19.3492191 1.2579306,19.3903402 1.8990453,19.0333346 L12.8503311,12.8034941" id="Path" fill="url(#linearGradient-3)"></path>
                        <path d="M12.8503311,6.47458916 L1.8990453,0.254094326 C1.2579306,-0.112256932 0.682235762,-0.0617901773 0.34205245,0.304561081 L9.68587868,9.63904161 L12.8503311,6.47458916 Z" id="Path" fill="url(#linearGradient-4)"></path>
                        <path d="M12.7830421,12.7362051 L1.90652185,18.9155788 C1.29905166,19.2651078 0.757001325,19.240809 0.407472318,18.9230554 L0.349529007,18.9809987 L0.407472318,19.0314655 C0.757001325,19.34735 1.29905166,19.3735179 1.90652185,19.0239889 L12.8578077,12.8034941 C12.8578077,12.8034941 12.7830421,12.7362051 12.7830421,12.7362051 Z" id="Path" fill="#000000" fill-rule="nonzero" opacity="0.2"></path>
                        <path d="M16.5138437,10.6128631 L12.7736964,12.7362051 L12.8409854,12.8034941 L16.504498,10.7212731 C17.0297261,10.4222109 17.2876673,10.0296917 17.2876673,9.63904161 C17.2558919,9.99791631 16.988605,10.3380996 16.5138437,10.6128631 Z" id="Path" fill="#000000" fill-rule="nonzero" opacity="0.12"></path>
                        <path d="M1.8990453,0.362504392 L16.5138437,8.66522015 C16.988605,8.93250704 17.2558919,9.28203605 17.297013,9.63904161 C17.297013,9.24839154 17.0390718,8.85587234 16.5138437,8.55681009 L1.8990453,0.254094326 C0.850458278,-0.345899316 -2.86490831e-14,0.155029955 -2.86490831e-14,1.3531481 L-2.86490831e-14,1.46155817 C-2.86490831e-14,0.261570882 0.850458278,-0.230012694 1.8990453,0.362504392 Z" id="Path" fill="#FFFFFF" opacity="0.25"></path>
                    </g>
                </g>
            </g>
        </g>
    </g>
</svg>