<?xml version="1.0" encoding="UTF-8"?>
<svg width="127px" height="43px" viewBox="0 0 127 43" version="1.1" xmlns="http://www.w3.org/2000/svg" xmlns:xlink="http://www.w3.org/1999/xlink">
    <title>download-appstore</title>
    <g id="Styles-&amp;-Assets" stroke="none" stroke-width="1" fill="none" fill-rule="evenodd">
        <g id="Artboard-Copy-5" transform="translate(-440.000000, -252.000000)" fill-rule="nonzero">
            <g id="download-appstore" transform="translate(440.000000, 252.000000)">
                <g id="Group">
                    <path d="M116.566641,-0.000137592 L10.0915053,-0.000137592 C9.70339003,-0.000137592 9.31993171,-0.000137592 8.93284308,0.0021168 C8.60881392,0.0042336 8.28736726,0.010382904 7.9602264,0.01555848 C7.24952528,0.0239217489 6.54049549,0.0864461535 5.83929864,0.202588344 C5.13908669,0.321258933 4.46080939,0.54498682 3.82740725,0.866205144 C3.19477978,1.19014086 2.61672997,1.61106211 2.11422809,2.11369889 C1.60908816,2.6149222 1.18801503,3.19426853 0.86720004,3.82946054 C0.545499616,4.46338829 0.322431503,5.14270029 0.20570004,5.84393443 C0.0878587801,6.5442829 0.0244473261,7.25270774 0.01603476,7.96285123 C0.006212808,8.28735667 0.005175576,8.61294168 0,8.93748946 L0,33.4016222 C0.005175576,33.7302554 0.006212808,34.0486222 0.01603476,34.3773612 C0.0244499058,35.0874695 0.0878613609,35.7958589 0.20570004,36.4961722 C0.322109173,37.1978162 0.545190474,37.8775182 0.86720004,38.5116833 C1.18786936,39.1448212 1.60900171,39.7218221 2.11422809,40.2202584 C2.61482464,40.7251301 3.19324809,41.1463377 3.82740725,41.4677945 C4.46080458,41.7898725 5.13900875,42.0149321 5.83929864,42.1354332 C6.54061469,42.250645 7.24957156,42.3131949 7.9602264,42.3225583 C8.28736726,42.3297554 8.60881392,42.3338832 8.93284308,42.3338832 C9.31992113,42.336 9.7034112,42.336 10.0915053,42.336 L116.566641,42.336 C116.94703,42.336 117.333557,42.336 117.713946,42.3338832 C118.036441,42.3338832 118.367191,42.3297554 118.689685,42.3225583 C119.398996,42.3136928 120.106619,42.251139 120.806485,42.1354332 C121.509034,42.0140838 122.18967,41.7890838 122.826124,41.4677945 C123.459711,41.1461516 124.037601,40.7249555 124.537768,40.2202584 C125.041691,39.71987 125.463723,39.1432912 125.788374,38.5116833 C126.107967,37.8770569 126.328925,37.1974093 126.443629,36.4961722 C126.561657,35.7957629 126.627318,35.0875309 126.640068,34.3773612 C126.644196,34.0486222 126.644196,33.7302554 126.644196,33.4016222 C126.652452,33.0171055 126.652452,32.6347056 126.652452,32.2439443 L126.652452,10.09304 C126.652452,9.70544333 126.652452,9.32094778 126.644196,8.93748946 C126.644196,8.61294168 126.644196,8.28735667 126.640068,7.9628089 C126.627321,7.25260392 126.561659,6.54433663 126.443629,5.8438921 C126.328605,5.14306364 126.10766,4.46380547 125.788374,3.82941821 C125.135049,2.55624353 124.099065,1.51988928 122.826124,0.866109888 C122.189668,0.545676515 121.508959,0.32200805 120.806485,0.202493088 C120.10674,0.0858391857 119.399044,0.0232930184 118.689685,0.015410304 C118.367191,0.010245312 118.036441,0.004043088 117.713946,0.001979208 C117.333557,-0.000137592 116.94703,-0.000137592 116.566641,-0.000137592 L116.566641,-0.000137592 Z" id="Path" fill="#A6A6A6"></path>
                    <path d="M8.93800807,41.4099 C8.61553476,41.4099 8.30085127,41.4057722 7.98090754,41.3985751 C7.31811816,41.3899394 6.6568779,41.3322399 6.00260976,41.2259501 C5.39253774,41.1208808 4.80154193,40.9254327 4.24911614,40.6460527 C3.7017558,40.3689876 3.20251917,40.005692 2.77053134,39.5700833 C2.33229059,39.1396058 1.96743514,38.6403254 1.69042356,38.0920277 C1.41035955,37.5401664 1.21653859,36.9486377 1.11571236,36.3380472 C1.00682878,35.6819608 0.947918253,35.0185539 0.93948876,34.3535472 C0.932778504,34.1303306 0.923993784,33.3871222 0.923993784,33.3871222 L0.923993784,8.93748946 C0.923993784,8.93748946 0.93335004,8.20570111 0.93954168,7.99070832 C0.947612855,7.326755 1.00618082,6.66437764 1.11473863,6.00930943 C1.21575098,5.39704628 1.40972199,4.8038118 1.6899367,4.25014279 C1.96593019,3.70222377 2.32876003,3.20257053 2.76436087,2.77055251 C3.19947211,2.33442971 3.7003057,1.9692634 4.24859753,1.68837026 C4.79975368,1.40988787 5.38963258,1.21581853 5.99847142,1.11266417 C6.65488827,1.00530657 7.31842411,0.947263856 7.9835112,0.939023064 L8.93852669,0.9261 L117.70876,0.9261 L118.675185,0.93954168 C119.334222,0.947372991 119.991731,1.00489789 120.642116,1.11162694 C121.257118,1.21607521 121.853144,1.41149868 122.410596,1.69147138 C123.509023,2.25755243 124.402792,3.15314606 124.966632,4.25272529 C125.242374,4.80257209 125.433353,5.39096755 125.533088,5.99794222 C125.642938,6.65838528 125.704418,7.32596786 125.717038,7.99536528 C125.720107,8.29510416 125.720107,8.61706944 125.720107,8.93748946 C125.728468,9.33438946 125.728468,9.71216417 125.728468,10.09304 L125.728468,32.2439443 C125.728468,32.628461 125.728468,33.0036638 125.720107,33.381936 C125.720107,33.7261277 125.720107,34.041425 125.715979,34.3659305 C125.703633,35.0233828 125.643178,35.6790495 125.535099,36.3276749 C125.436339,36.94267 125.243573,37.5388159 124.963563,38.0952029 C124.684593,38.6375494 124.321833,39.1325049 123.888652,39.5618278 C123.456275,39.9997774 122.956158,40.3651986 122.407527,40.6440418 C121.851619,40.9255695 121.25647,41.1217403 120.642116,41.2259501 C119.987897,41.3328072 119.326593,41.3905103 118.663754,41.3985751 C118.353749,41.4057722 118.029138,41.4099 117.713946,41.4099 L116.566641,41.4120168 L8.93800807,41.4099 Z" id="Path" fill="#000000"></path>
                </g>
                <g id="Group-11" transform="translate(10.500000, 7.700000)" fill="#FFFFFF">
                    <g id="_Group_" transform="translate(0.000000, 0.700000)">
                        <g id="_Group_3">
                            <path d="M15.7097826,12.3190397 C15.732916,10.5234949 16.6742421,8.86495778 18.2039657,7.92449941 C17.2345482,6.53999871 15.6690469,5.69366565 13.979722,5.6408109 C12.2024143,5.45425731 10.4793921,6.70432297 9.57370859,6.70432297 C8.65049802,6.70432297 7.25605602,5.6593329 5.75447219,5.69022759 C3.77877942,5.75405802 1.98154839,6.85012337 1.02033366,8.5774052 C-1.02661194,12.1213729 0.50022532,17.3298122 2.46102774,20.1944883 C3.4420587,21.5972387 4.58860226,23.164147 6.08883134,23.108581 C7.55689564,23.0476912 8.10518918,22.1724474 9.8772683,22.1724474 C11.6328999,22.1724474 12.147314,23.108581 13.6779827,23.0732516 C15.2532841,23.0476807 16.2457987,21.6642672 17.1924105,20.2482338 C17.8972796,19.2487229 18.4396753,18.1440457 18.7995062,16.9751212 C16.9285266,16.1837887 15.7119663,14.3504843 15.7097826,12.3190397 L15.7097826,12.3190397 Z" id="_Path_"></path>
                            <path d="M12.8186254,3.75680598 C13.6775452,2.72570413 14.1007023,1.4003974 13.9982334,0.062333768 C12.685995,0.200159132 11.4738543,0.827323776 10.6033307,1.81886499 C9.74372862,2.79715366 9.30825619,4.07701715 9.39282803,5.37656017 C10.7226619,5.39025244 11.9853112,4.79325817 12.8186254,3.75680598 L12.8186254,3.75680598 Z" id="_Path_2"></path>
                        </g>
                        <g id="Group" transform="translate(25.480000, 9.525600)">
                            <path d="M8.78712257,10.0318056 L3.77729201,10.0318056 L2.57418756,13.5842722 L0.452222568,13.5842722 L5.19745313,0.44106104 L7.40210033,0.44106104 L12.1473309,13.5842722 L9.9891792,13.5842722 L8.78712257,10.0318056 Z M4.29615144,8.39252389 L8.26726824,8.39252389 L6.30964102,2.62713332 L6.25485823,2.62713332 L4.29615144,8.39252389 Z" id="Shape"></path>
                            <path d="M22.3954159,8.79356223 C22.3954159,11.7713495 20.8016137,13.6845239 18.396442,13.6845239 C17.1532298,13.7495569 15.9821918,13.0983933 15.381452,12.0080183 L15.3359408,12.0080183 L15.3359408,16.7542861 L13.3690103,16.7542861 L13.3690103,4.00181499 L15.2729237,4.00181499 L15.2729237,5.59561722 L15.3090998,5.59561722 C15.9365281,4.51207801 17.1088288,3.86119474 18.3602659,3.90155276 C20.792268,3.90156334 22.3954159,5.8240411 22.3954159,8.79356223 Z M20.3737026,8.79356223 C20.3737026,6.85351503 19.371112,5.57804778 17.8413959,5.57804778 C16.3385526,5.57804778 15.3276959,6.88037722 15.3276959,8.79356223 C15.3276959,10.7243167 16.3385526,12.0173428 17.8413959,12.0173428 C19.3711226,12.0173428 20.3737026,10.7511895 20.3737026,8.79356223 Z" id="Shape"></path>
                            <path d="M32.9422026,8.79356223 C32.9422026,11.7713495 31.3484003,13.6845239 28.9432287,13.6845239 C27.7000164,13.7495569 26.5289785,13.0983933 25.9282387,12.0080183 L25.8827275,12.0080183 L25.8827275,16.7542861 L23.9157969,16.7542861 L23.9157969,4.00181499 L25.819668,4.00181499 L25.819668,5.59561722 L25.8558441,5.59561722 C26.483277,4.51207867 27.6555822,3.86119922 28.9070208,3.90156334 C31.339097,3.90156334 32.9422026,5.8240411 32.9422026,8.79356223 Z M30.9204998,8.79356223 C30.9204998,6.85351503 29.9178986,5.57804778 28.3881825,5.57804778 C26.8853392,5.57804778 25.8744825,6.88037722 25.8744825,8.79356223 C25.8744825,10.7243167 26.8853392,12.0173428 28.3881825,12.0173428 C29.9179092,12.0173428 30.9204998,10.7511895 30.9204998,8.79356223 L30.9204998,8.79356223 Z" id="Shape"></path>
                            <path d="M39.9127614,9.92223999 C40.0585031,11.2256067 41.324667,12.081376 43.0548864,12.081376 C44.7127748,12.081376 45.9055387,11.2255643 45.9055387,10.0503593 C45.9055387,9.0301993 45.1861548,8.41936491 43.4827976,8.00074654 L41.7794404,7.59040486 C39.3660026,7.00745931 38.2455804,5.87877097 38.2455804,4.04724152 C38.2455804,1.77953485 40.2218142,0.221908736 43.0280137,0.221908736 C45.8052553,0.221908736 47.7091581,1.77953485 47.7732442,4.04724152 L45.7876858,4.04724152 C45.6688275,2.73560874 44.5845814,1.9438832 43.0000825,1.9438832 C41.4155836,1.9438832 40.3313481,2.74492266 40.3313481,3.91081376 C40.3313481,4.84001487 41.0238592,5.38678431 42.7179131,5.80534976 L44.1659736,6.16090866 C46.862618,6.79863699 47.9830403,7.88186706 47.9830403,9.80432365 C47.9830403,12.2632409 46.0243758,13.8032975 42.9091236,13.8032975 C39.9943853,13.8032975 38.026428,12.299417 37.899293,9.92214474 L39.9127614,9.92223999 Z" id="Path"></path>
                            <path d="M52.2280287,1.73410832 L52.2280287,4.00181499 L54.0502548,4.00181499 L54.0502548,5.5594411 L52.2280287,5.5594411 L52.2280287,10.8421378 C52.2280287,11.6628105 52.5928909,12.0452422 53.3939198,12.0452422 C53.6102477,12.04147 53.8262255,12.0262785 54.0409514,11.999731 L54.0409514,13.5480538 C53.6808079,13.6153464 53.3147523,13.645823 52.9484392,13.6390127 C51.008392,13.6390127 50.2517948,12.9103255 50.2517948,11.0519232 L50.2517948,5.5594411 L48.858517,5.5594411 L48.858517,4.00181499 L50.2517736,4.00181499 L50.2517736,1.73410832 L52.2280287,1.73410832 Z" id="Path"></path>
                            <path d="M55.105596,8.79356223 C55.105596,5.77857224 56.8813054,3.8839939 59.6503127,3.8839939 C62.4286127,3.8839939 64.196056,5.7785299 64.196056,8.79356223 C64.196056,11.8168289 62.437916,13.7031306 59.6503127,13.7031306 C56.8636937,13.7031306 55.105596,11.8168183 55.105596,8.79356223 Z M62.1919121,8.79356223 C62.1919121,6.72534279 61.2441043,5.5046689 59.6503021,5.5046689 C58.0564999,5.5046689 57.1097293,6.73464613 57.1097293,8.79356223 C57.1097293,10.8700478 58.0564999,12.0814289 59.6503021,12.0814289 C61.2441043,12.0814289 62.1919121,10.8700478 62.1919121,8.79356223 L62.1919121,8.79356223 Z" id="Shape"></path>
                            <path d="M65.8177153,4.00181499 L67.6936976,4.00181499 L67.6936976,5.63280939 L67.7392088,5.63280939 C68.0008199,4.58286432 68.9628595,3.86025564 70.0441182,3.90154218 C70.2707894,3.90075074 70.4968352,3.92536755 70.7180226,3.97493163 L70.7180226,5.81472718 C70.4318641,5.72728569 70.1333515,5.68713843 69.8342586,5.69586886 C69.2559999,5.67240989 68.6963738,5.90286516 68.3023214,6.32672392 C67.9082691,6.75058269 67.719159,7.32549871 67.7846459,7.90051606 L67.7846459,13.5842511 L65.8177153,13.5842511 L65.8177153,4.00181499 Z" id="Path"></path>
                            <path d="M79.7867431,10.7697855 C79.5221431,12.5093189 77.8280787,13.70312 75.6606342,13.70312 C72.8730309,13.70312 71.1428009,11.8354144 71.1428009,8.8390311 C71.1428009,5.83334444 72.8823342,3.88398332 75.577952,3.88398332 C78.229117,3.88398332 79.8963087,5.7051722 79.8963087,8.61060721 L79.8963087,9.28451166 L73.1283381,9.28451166 L73.1283381,9.40336998 C73.0651489,10.116765 73.3114853,10.8229272 73.8046874,11.3422317 C74.2978895,11.8615362 74.9904209,12.1439309 75.7061243,12.1175839 C76.6606341,12.2070182 77.5605501,11.6589132 77.9190481,10.769775 L79.7867431,10.7697855 Z M73.1376228,7.90984057 L77.9283409,7.90984057 C77.9640359,7.26879679 77.7306916,6.64193355 77.2845268,6.18026843 C76.838362,5.71860331 76.2198301,5.46399503 75.577952,5.47778554 C74.9309963,5.47392474 74.3093016,5.72865241 73.8510513,6.18535055 C73.3928009,6.64204868 73.1359653,7.26287549 73.1376228,7.90984057 L73.1376228,7.90984057 Z" id="Shape"></path>
                        </g>
                    </g>
                    <g id="Group" transform="translate(27.238400, 0.000000)">
                        <path d="M2.2912395,0.7736904 C3.12626053,0.713768217 3.94414517,1.031461 4.51977615,1.63932593 C5.09540713,2.24719086 5.36810977,3.08115565 5.2628245,3.91167706 C5.2628245,5.92925206 4.17238674,7.08899386 2.2912395,7.08899386 L0.010101728,7.08899386 L0.010101728,0.7736904 L2.2912395,0.7736904 Z M0.990973928,6.1958736 L2.18167393,6.1958736 C2.77842307,6.2315438 3.35947894,5.99642765 3.76350408,5.5558081 C4.16752921,5.11518854 4.35150994,4.51597521 4.2643617,3.9245472 C4.34516949,3.33557357 4.15853925,2.74130491 3.75551587,2.30427861 C3.35249249,1.8672523 2.77525182,1.63320254 2.18167393,1.66614386 L0.990973928,1.66614386 L0.990973928,6.1958736 Z" id="Shape"></path>
                        <path d="M6.37083171,4.70388946 C6.28910961,3.84963899 6.69872791,3.02290887 7.42789382,2.57042745 C8.15705973,2.11794604 9.07970259,2.11794604 9.80886849,2.57042745 C10.5380344,3.02290887 10.9476527,3.84963899 10.8659306,4.70388946 C10.9492076,5.55905788 10.5399631,6.38739148 9.81015071,6.840847 C9.08033828,7.29430252 8.15642403,7.29430252 7.4266116,6.840847 C6.69679917,6.38739148 6.28755475,5.55905788 6.37083171,4.70388946 Z M9.8984895,4.70388946 C9.8984895,3.67081697 9.43439168,3.06668225 8.61993171,3.06668225 C7.80236005,3.06668225 7.34244291,3.67081697 7.34244291,4.70390004 C7.34244291,5.74524922 7.8023918,6.34472698 8.61993171,6.34472698 C9.43441285,6.34472698 9.8984895,5.74110029 9.8984895,4.70388946 L9.8984895,4.70388946 Z" id="Shape"></path>
                        <polygon id="Path" points="16.8411384 7.0888986 15.8654312 7.0888986 14.8804206 3.57881026 14.8060045 3.57881026 13.8251217 7.0888986 12.8587073 7.0888986 11.5450106 2.32299749 12.4990206 2.32299749 13.3527684 5.95965989 13.4230568 5.95965989 14.4029023 2.32299749 15.3052306 2.32299749 16.2850762 5.95965989 16.3594923 5.95965989 17.2091017 2.32299749 18.1496701 2.32299749"></polygon>
                        <path d="M19.2545762,2.32299749 L20.1600056,2.32299749 L20.1600056,3.08010276 L20.2302939,3.08010276 C20.4747154,2.52267305 21.0458577,2.18168783 21.6525189,2.23100136 C22.1222546,2.19568443 22.5825624,2.37588563 22.9034745,2.72072523 C23.2243866,3.06556483 23.371078,3.53762131 23.3021306,4.00360968 L23.3021306,7.08884568 L22.3615623,7.08884568 L22.3615623,4.23980222 C22.3615623,3.47391223 22.0287484,3.09302582 21.3331362,3.09302582 C21.0145216,3.07818612 20.7053146,3.20322915 20.4865798,3.43537248 C20.267845,3.66751581 20.1613974,3.98360699 20.1951445,4.30077665 L20.1951445,7.0888986 L19.2545762,7.0888986 L19.2545762,2.32299749 Z" id="Path"></path>
                        <polygon id="Path" points="24.8008462 0.4625208 25.7414145 0.4625208 25.7414145 7.08888802 24.8008462 7.08888802"></polygon>
                        <path d="M27.0489089,4.70388946 C26.9672496,3.84958311 27.3769325,3.02283206 28.1061525,2.57034367 C28.8353725,2.11785527 29.7580628,2.11785527 30.4872829,2.57034367 C31.2165029,3.02283206 31.6261858,3.84958311 31.5445264,4.70388946 C31.6276976,5.5590885 31.2183782,6.38739869 30.4885296,6.84083424 C29.7586809,7.29426978 28.8347544,7.29426978 28.1049058,6.84083424 C27.3750571,6.38739869 26.9657377,5.5590885 27.0489089,4.70388946 L27.0489089,4.70388946 Z M30.5765667,4.70388946 C30.5765667,3.67081697 30.1124689,3.06668225 29.2980089,3.06668225 C28.4804373,3.06668225 28.0205201,3.67081697 28.0205201,4.70390004 C28.0205201,5.74524922 28.480469,6.34472698 29.2980089,6.34472698 C30.1124795,6.34472698 30.5765667,5.74110029 30.5765667,4.70388946 L30.5765667,4.70388946 Z" id="Shape"></path>
                        <path d="M32.5347126,5.74110029 C32.5347126,4.88321417 33.1734781,4.38864502 34.3073209,4.31835667 L35.5982831,4.24394057 L35.5982831,3.83257224 C35.5982831,3.32920778 35.2654692,3.04497446 34.6225759,3.04497446 C34.0975142,3.04497446 33.7336892,3.23774086 33.6292887,3.57469308 L32.7186942,3.57469308 C32.8148181,2.75608418 33.5848465,2.23102253 34.6659809,2.23102253 C35.8608192,2.23102253 36.5347237,2.82584333 36.5347237,3.83257224 L36.5347237,7.08890918 L35.6292942,7.08890918 L35.6292942,6.41914308 L35.5548781,6.41914308 C35.2473585,6.90825759 34.7004886,7.19411757 34.1233498,7.16743188 C33.7187617,7.20951578 33.315252,7.07848464 33.0125757,6.80673175 C32.7098994,6.53497885 32.5363066,6.14786808 32.5347126,5.74110029 L32.5347126,5.74110029 Z M35.5982831,5.33385972 L35.5982831,4.93541446 L34.4344559,5.00983056 C33.7781209,5.05375416 33.4804459,5.27701306 33.4804459,5.6971661 C33.4804459,6.12610387 33.852537,6.37571693 34.3642099,6.37571693 C34.6671092,6.40637863 34.9694838,6.3128004 35.2021138,6.11640426 C35.4347438,5.92000812 35.5777095,5.63761106 35.5982831,5.33385972 Z" id="Shape"></path>
                        <path d="M37.7708925,4.70388946 C37.7708925,3.19794502 38.5450592,2.24393501 39.7491903,2.24393501 C40.3572165,2.2159193 40.9266895,2.54171888 41.2106925,3.08007101 L41.2809809,3.08007101 L41.2809809,0.4625208 L42.2215492,0.4625208 L42.2215492,7.08888802 L41.3202581,7.08888802 L41.3202581,6.3359105 L41.245842,6.3359105 C40.940371,6.86979602 40.3638821,7.19008849 39.7492009,7.16743188 C38.5367931,7.1674848 37.7708925,6.21345362 37.7708925,4.70388946 Z M38.7425037,4.70388946 C38.7425037,5.71474613 39.2189954,6.32301919 40.0158965,6.32301919 C40.8086381,6.32301919 41.2985821,5.70597199 41.2985821,4.7080278 C41.2985821,3.71474057 40.8034943,3.08889806 40.0158965,3.08889806 C39.2241287,3.08889806 38.742472,3.70129889 38.742472,4.70388946 L38.7425037,4.70388946 Z" id="Shape"></path>
                        <path d="M46.113032,4.70388946 C46.0313099,3.84963899 46.4409282,3.02290887 47.1700941,2.57042745 C47.89926,2.11794604 48.8219029,2.11794604 49.5510688,2.57042745 C50.2802347,3.02290887 50.689853,3.84963899 50.6081309,4.70388946 C50.6914079,5.55905788 50.2821634,6.38739148 49.552351,6.840847 C48.8225386,7.29430252 47.8986243,7.29430252 47.1688119,6.840847 C46.4389995,6.38739148 46.029755,5.55905788 46.113032,4.70388946 L46.113032,4.70388946 Z M49.6406792,4.70388946 C49.6406792,3.67081697 49.176592,3.06668225 48.362132,3.06668225 C47.5445603,3.06668225 47.0846432,3.67081697 47.0846432,4.70390004 C47.0846432,5.74524922 47.5445921,6.34472698 48.362132,6.34472698 C49.1766026,6.34472698 49.6406792,5.74110029 49.6406792,4.70388946 Z" id="Shape"></path>
                        <path d="M51.8701459,2.32299749 L52.7755753,2.32299749 L52.7755753,3.08010276 L52.8458637,3.08010276 C53.0902851,2.52267305 53.6614274,2.18168783 54.2680887,2.23100136 C54.7378244,2.19568443 55.1981321,2.37588563 55.5190442,2.72072523 C55.8399563,3.06556483 55.9866478,3.53762131 55.9177003,4.00360968 L55.9177003,7.08884568 L54.977132,7.08884568 L54.977132,4.23980222 C54.977132,3.47391223 54.6443181,3.09302582 53.9487059,3.09302582 C53.6300913,3.07818612 53.3208844,3.20322915 53.1021495,3.43537248 C52.8834147,3.66751581 52.7769672,3.98360699 52.8107142,4.30077665 L52.8107142,7.0888986 L51.8701459,7.0888986 L51.8701459,2.32299749 Z" id="Path"></path>
                        <path d="M61.2324453,1.13643583 L61.2324453,2.34470527 L62.2650098,2.34470527 L62.2650098,3.13696001 L61.2324453,3.13696001 L61.2324453,5.58761112 C61.2324453,6.08683723 61.4381348,6.30543917 61.9063498,6.30543917 C62.0262195,6.30505554 62.1459689,6.29780775 62.2650098,6.28373138 L62.2650098,7.06719082 C62.0960992,7.0974089 61.9249624,7.11348528 61.7533792,7.11525276 C60.7073837,7.11525276 60.2908398,6.74728942 60.2908398,5.82842887 L60.2908398,3.13691767 L59.5342531,3.13691767 L59.5342531,2.34466294 L60.2908398,2.34466294 L60.2908398,1.13643583 L61.2324453,1.13643583 Z" id="Path"></path>
                        <path d="M63.5497592,0.4625208 L64.4820614,0.4625208 L64.4820614,3.08888748 L64.5564776,3.08888748 C64.8126397,2.5265792 65.3937779,2.18515945 66.0096608,2.2351397 C66.4767291,2.20972464 66.9308057,2.39389305 67.2482102,2.73748159 C67.5656148,3.08107013 67.7132878,3.54829197 67.6510063,4.01188637 L67.6510063,7.0888986 L66.709496,7.0888986 L66.709496,4.2439194 C66.709496,3.48267578 66.354932,3.097143 65.6903732,3.097143 C65.3631466,3.07030586 65.0407581,3.18926715 64.8093953,3.42222368 C64.5780325,3.65518022 64.4612871,3.97837775 64.4903699,4.30541244 L64.4903699,7.0888986 L63.5498016,7.0888986 L63.5497592,0.4625208 Z" id="Path"></path>
                        <path d="M73.135307,5.80207471 C72.8715612,6.70105796 72.0016007,7.28190105 71.0701887,7.18088414 C70.4346871,7.19765999 69.8239348,6.93424593 69.3999787,6.46053198 C68.9760226,5.98681804 68.781723,5.35069457 68.868632,4.72094028 C68.7840313,4.08943584 68.977603,3.45229307 69.3991982,2.97457706 C69.8207935,2.49686104 70.4289274,2.22557891 71.0660503,2.23101194 C72.3921514,2.23101194 73.1921537,3.13700234 73.1921537,4.63357994 L73.1921537,4.9617792 L69.8267698,4.9617792 L69.8267698,5.01448752 C69.7969885,5.36814145 69.9177718,5.7179507 70.1594151,5.97788628 C70.4010585,6.23782185 70.7411405,6.38376492 71.0960242,6.37982352 C71.5561867,6.43506637 72.0041235,6.20681009 72.2298776,5.80204296 L73.135307,5.80207471 Z M69.8267486,4.26615638 L72.2339841,4.26615638 C72.25796,3.94270981 72.1442302,3.62417865 71.9208215,3.38905934 C71.6974128,3.15394004 71.3851024,3.02409882 71.0608536,3.03153278 C70.7322119,3.02740387 70.4158307,3.15617128 70.1834784,3.38862518 C69.9511262,3.62107908 69.8224971,3.93751655 69.8267698,4.26615638 L69.8267486,4.26615638 Z" id="Shape"></path>
                    </g>
                </g>
            </g>
        </g>
    </g>
</svg>